<?xml version="1.0" encoding="UTF-8" standalone="no"?>
<!-- Created with Inkscape (http://www.inkscape.org/) -->

<svg
   xmlns:dc="http://purl.org/dc/elements/1.1/"
   xmlns:cc="http://creativecommons.org/ns#"
   xmlns:rdf="http://www.w3.org/1999/02/22-rdf-syntax-ns#"
   xmlns:svg="http://www.w3.org/2000/svg"
   xmlns="http://www.w3.org/2000/svg"
   xmlns:sodipodi="http://sodipodi.sourceforge.net/DTD/sodipodi-0.dtd"
   xmlns:inkscape="http://www.inkscape.org/namespaces/inkscape"
   width="1017.6605"
   height="424.75806"
   id="svg3517"
   version="1.1"
   inkscape:version="0.48.3.1 r9886"
   sodipodi:docname="catboard-3s-3.svg">
  <defs
     id="defs3519" />
  <sodipodi:namedview
     id="base"
     pagecolor="#ffffff"
     bordercolor="#666666"
     borderopacity="1.0"
     inkscape:pageopacity="0.0"
     inkscape:pageshadow="2"
     inkscape:zoom="0.35"
     inkscape:cx="631.86373"
     inkscape:cy="163.8338"
     inkscape:document-units="px"
     inkscape:current-layer="layer1"
     showgrid="false"
     fit-margin-top="0"
     fit-margin-left="0"
     fit-margin-right="0"
     fit-margin-bottom="0"
     inkscape:window-width="1024"
     inkscape:window-height="744"
     inkscape:window-x="0"
     inkscape:window-y="24"
     inkscape:window-maximized="1"
     showguides="true"
     inkscape:guide-bbox="true"
     inkscape:snap-global="false">
    <sodipodi:guide
       orientation="0,1"
       position="-354.97777,373.93403"
       id="guide3661" />
    <sodipodi:guide
       orientation="1,0"
       position="584.95132,493.09296"
       id="guide3716" />
    <sodipodi:guide
       orientation="1,0"
       position="441.50965,426.42289"
       id="guide3718" />
  </sodipodi:namedview>
  <metadata
     id="metadata3522">
    <rdf:RDF>
      <cc:Work
         rdf:about="">
        <dc:format>image/svg+xml</dc:format>
        <dc:type
           rdf:resource="http://purl.org/dc/dcmitype/StillImage" />
        <dc:title></dc:title>
      </cc:Work>
    </rdf:RDF>
  </metadata>
  <g
     inkscape:label="Layer 1"
     inkscape:groupmode="layer"
     id="layer1"
     transform="translate(-4.9465186,-62.774195)">
    <rect
       style="fill:#000000;fill-opacity:1;stroke:none"
       id="rect5184-2-9-1-3"
       width="48.522621"
       height="48.522621"
       x="-918.44836"
       y="295.685"
       transform="matrix(-0.97590284,0.21820553,0.21820553,0.97590284,0,0)" />
    <rect
       transform="matrix(-0.97590284,0.21820553,0.21820553,0.97590284,0,0)"
       y="276.85233"
       x="-851.24164"
       height="48.522621"
       width="48.522621"
       id="rect6707-4-7-2"
       style="fill:#000000;fill-opacity:1;stroke:none" />
    <rect
       style="fill:#000000;fill-opacity:1;stroke:none"
       id="rect6709-46-4-1"
       width="48.522621"
       height="48.522621"
       x="-783.94299"
       y="262.73624"
       transform="matrix(-0.97590284,0.21820553,0.21820553,0.97590284,0,0)" />
    <rect
       transform="matrix(-0.97590284,0.21820553,0.21820553,0.97590284,0,0)"
       y="248.62006"
       x="-716.64447"
       height="48.522621"
       width="48.522621"
       id="rect6711-9-0-5"
       style="fill:#000000;fill-opacity:1;stroke:none" />
    <rect
       style="fill:#000000;fill-opacity:1;stroke:none"
       id="rect6713-8-9-3"
       width="48.522621"
       height="48.522621"
       x="-649.29767"
       y="262.50381"
       transform="matrix(-0.97590284,0.21820553,0.21820553,0.97590284,0,0)" />
    <rect
       transform="matrix(-0.97590284,0.21820553,0.21820553,0.97590284,0,0)"
       y="276.3876"
       x="-581.95074"
       height="48.522621"
       width="48.522621"
       id="rect6715-5-4-6"
       style="fill:#000000;fill-opacity:1;stroke:none" />
    <rect
       transform="matrix(-0.97590284,0.21820553,0.21820553,0.97590284,0,0)"
       y="363.00775"
       x="-918.33221"
       height="48.522621"
       width="48.522621"
       id="rect6719-6-8-3"
       style="fill:#000000;fill-opacity:1;stroke:none" />
    <rect
       style="fill:#000000;fill-opacity:1;stroke:none"
       id="rect6721-6-8-3"
       width="48.522621"
       height="48.522621"
       x="-851.12543"
       y="344.17511"
       transform="matrix(-0.97590284,0.21820553,0.21820553,0.97590284,0,0)" />
    <rect
       transform="matrix(-0.97590284,0.21820553,0.21820553,0.97590284,0,0)"
       y="330.0589"
       x="-783.82678"
       height="48.522621"
       width="48.522621"
       id="rect6723-0-2-4"
       style="fill:#000000;fill-opacity:1;stroke:none" />
    <rect
       style="fill:#000000;fill-opacity:1;stroke:none"
       id="rect6725-7-4-6"
       width="48.522621"
       height="48.522621"
       x="-716.52826"
       y="315.94281"
       transform="matrix(-0.97590284,0.21820553,0.21820553,0.97590284,0,0)" />
    <rect
       transform="matrix(-0.97590284,0.21820553,0.21820553,0.97590284,0,0)"
       y="329.8266"
       x="-649.18146"
       height="48.522621"
       width="48.522621"
       id="rect6727-2-5-0"
       style="fill:#000000;fill-opacity:1;stroke:none" />
    <rect
       style="fill:#000000;fill-opacity:1;stroke:none"
       id="rect6729-7-5-6"
       width="48.522621"
       height="48.522621"
       x="-581.83453"
       y="343.71039"
       transform="matrix(-0.97590284,0.21820553,0.21820553,0.97590284,0,0)" />
    <rect
       style="fill:#000000;fill-opacity:1;stroke:none"
       id="rect6733-2-1-6"
       width="48.522621"
       height="48.522621"
       x="-918.216"
       y="430.33051"
       transform="matrix(-0.97590284,0.21820553,0.21820553,0.97590284,0,0)" />
    <rect
       transform="matrix(-0.97590284,0.21820553,0.21820553,0.97590284,0,0)"
       y="411.49786"
       x="-851.00934"
       height="48.522621"
       width="48.522621"
       id="rect6735-6-7-4"
       style="fill:#000000;fill-opacity:1;stroke:none" />
    <rect
       style="fill:#000000;fill-opacity:1;stroke:none"
       id="rect6737-4-1-1"
       width="48.522621"
       height="48.522621"
       x="-783.71057"
       y="397.38165"
       transform="matrix(-0.97590284,0.21820553,0.21820553,0.97590284,0,0)" />
    <rect
       transform="matrix(-0.97590284,0.21820553,0.21820553,0.97590284,0,0)"
       y="383.26556"
       x="-716.41205"
       height="48.522621"
       width="48.522621"
       id="rect6739-7-1-9"
       style="fill:#000000;fill-opacity:1;stroke:none" />
    <rect
       style="fill:#000000;fill-opacity:1;stroke:none"
       id="rect6741-1-5-6"
       width="48.522621"
       height="48.522621"
       x="-649.06525"
       y="397.14935"
       transform="matrix(-0.97590284,0.21820553,0.21820553,0.97590284,0,0)" />
    <rect
       transform="matrix(-0.97590284,0.21820553,0.21820553,0.97590284,0,0)"
       y="411.03314"
       x="-581.71832"
       height="48.522621"
       width="48.522621"
       id="rect6743-3-2-7"
       style="fill:#000000;fill-opacity:1;stroke:none" />
    <rect
       style="fill:#000000;fill-opacity:1;stroke:none"
       id="rect6749-2-7-1"
       width="48.522621"
       height="48.522621"
       x="-850.89313"
       y="478.82059"
       transform="matrix(-0.97590284,0.21820553,0.21820553,0.97590284,0,0)" />
    <rect
       transform="matrix(-0.97590284,0.21820553,0.21820553,0.97590284,0,0)"
       y="464.70438"
       x="-783.59448"
       height="48.522621"
       width="48.522621"
       id="rect6751-1-6-2"
       style="fill:#000000;fill-opacity:1;stroke:none" />
    <rect
       style="fill:#000000;fill-opacity:1;stroke:none"
       id="rect6753-6-1-6"
       width="48.522621"
       height="48.522621"
       x="-716.29584"
       y="450.58829"
       transform="matrix(-0.97590284,0.21820553,0.21820553,0.97590284,0,0)" />
    <rect
       transform="matrix(-0.97590284,0.21820553,0.21820553,0.97590284,0,0)"
       y="464.47208"
       x="-648.94904"
       height="48.522621"
       width="48.522621"
       id="rect6755-38-4-0"
       style="fill:#000000;fill-opacity:1;stroke:none" />
    <rect
       style="fill:#000000;fill-opacity:1;stroke:none"
       id="rect6757-3-2-2"
       width="48.522621"
       height="48.522621"
       x="-581.60211"
       y="478.35587"
       transform="matrix(-0.97590284,0.21820553,0.21820553,0.97590284,0,0)" />
    <rect
       style="fill:#000000;fill-opacity:1;stroke:none"
       id="rect6761-8-2-4"
       width="48.522621"
       height="48.522621"
       x="-721.5379"
       y="445.8194"
       transform="matrix(-0.99821029,0.05980143,0.05980143,0.99821029,0,0)" />
    <rect
       transform="matrix(-0.97590284,0.21820553,0.21820553,0.97590284,0,0)"
       y="548.68829"
       x="-564.62585"
       height="48.522621"
       width="48.522621"
       id="rect6763-60-2-1"
       style="fill:#000000;fill-opacity:1;stroke:none" />
    <path
       style="fill:none;stroke:#000000;stroke-width:1px;stroke-linecap:butt;stroke-linejoin:miter;stroke-opacity:1"
       d="m 513.54043,487.03226 c 314.05196,0 571.39217,-12.76461 495.00547,-406.445987 C 830.32148,44.815775 683.25949,68.656981 513.64113,114.35584"
       id="path6432-6"
       inkscape:connector-curvature="0"
       sodipodi:nodetypes="ccc" />
    <rect
       style="fill:#000000;fill-opacity:1;stroke:none"
       id="rect6761-8-2-6-0"
       width="48.522621"
       height="48.522621"
       x="-792.40143"
       y="445.38623"
       transform="matrix(-0.99821029,0.05980143,0.05980143,0.99821029,0,0)" />
    <rect
       style="fill:#000000;fill-opacity:1;stroke:none"
       id="rect5184-2-9-1-3-0"
       width="48.522621"
       height="48.522621"
       x="84.341209"
       y="71.454384"
       transform="matrix(0.97590284,0.21820553,-0.21820553,0.97590284,0,0)" />
    <rect
       transform="matrix(0.97590284,0.21820553,-0.21820553,0.97590284,0,0)"
       y="52.621731"
       x="151.54788"
       height="48.522621"
       width="48.522621"
       id="rect6707-4-7-2-1"
       style="fill:#000000;fill-opacity:1;stroke:none" />
    <rect
       style="fill:#000000;fill-opacity:1;stroke:none"
       id="rect6709-46-4-1-3"
       width="48.522621"
       height="48.522621"
       x="218.84659"
       y="38.505642"
       transform="matrix(0.97590284,0.21820553,-0.21820553,0.97590284,0,0)" />
    <rect
       transform="matrix(0.97590284,0.21820553,-0.21820553,0.97590284,0,0)"
       y="24.389462"
       x="286.14505"
       height="48.522621"
       width="48.522621"
       id="rect6711-9-0-5-8"
       style="fill:#000000;fill-opacity:1;stroke:none" />
    <rect
       style="fill:#000000;fill-opacity:1;stroke:none"
       id="rect6713-8-9-3-1"
       width="48.522621"
       height="48.522621"
       x="353.49191"
       y="38.273235"
       transform="matrix(0.97590284,0.21820553,-0.21820553,0.97590284,0,0)" />
    <rect
       transform="matrix(0.97590284,0.21820553,-0.21820553,0.97590284,0,0)"
       y="52.157009"
       x="420.83884"
       height="48.522621"
       width="48.522621"
       id="rect6715-5-4-6-9"
       style="fill:#000000;fill-opacity:1;stroke:none" />
    <rect
       transform="matrix(0.97590284,0.21820553,-0.21820553,0.97590284,0,0)"
       y="138.77715"
       x="84.457298"
       height="48.522621"
       width="48.522621"
       id="rect6719-6-8-3-8"
       style="fill:#000000;fill-opacity:1;stroke:none" />
    <rect
       style="fill:#000000;fill-opacity:1;stroke:none"
       id="rect6721-6-8-3-2"
       width="48.522621"
       height="48.522621"
       x="151.66409"
       y="119.94452"
       transform="matrix(0.97590284,0.21820553,-0.21820553,0.97590284,0,0)" />
    <rect
       transform="matrix(0.97590284,0.21820553,-0.21820553,0.97590284,0,0)"
       y="105.82829"
       x="218.9628"
       height="48.522621"
       width="48.522621"
       id="rect6723-0-2-4-7"
       style="fill:#000000;fill-opacity:1;stroke:none" />
    <rect
       style="fill:#000000;fill-opacity:1;stroke:none"
       id="rect6725-7-4-6-9"
       width="48.522621"
       height="48.522621"
       x="286.26126"
       y="91.712219"
       transform="matrix(0.97590284,0.21820553,-0.21820553,0.97590284,0,0)" />
    <rect
       transform="matrix(0.97590284,0.21820553,-0.21820553,0.97590284,0,0)"
       y="105.59599"
       x="353.60812"
       height="48.522621"
       width="48.522621"
       id="rect6727-2-5-0-1"
       style="fill:#000000;fill-opacity:1;stroke:none" />
    <rect
       style="fill:#000000;fill-opacity:1;stroke:none"
       id="rect6729-7-5-6-6"
       width="48.522621"
       height="48.522621"
       x="420.95505"
       y="119.4798"
       transform="matrix(0.97590284,0.21820553,-0.21820553,0.97590284,0,0)" />
    <rect
       style="fill:#000000;fill-opacity:1;stroke:none"
       id="rect6733-2-1-6-5"
       width="48.522621"
       height="48.522621"
       x="84.573509"
       y="206.0999"
       transform="matrix(0.97590284,0.21820553,-0.21820553,0.97590284,0,0)" />
    <rect
       transform="matrix(0.97590284,0.21820553,-0.21820553,0.97590284,0,0)"
       y="187.26726"
       x="151.78018"
       height="48.522621"
       width="48.522621"
       id="rect6735-6-7-4-0"
       style="fill:#000000;fill-opacity:1;stroke:none" />
    <rect
       style="fill:#000000;fill-opacity:1;stroke:none"
       id="rect6737-4-1-1-3"
       width="48.522621"
       height="48.522621"
       x="219.07901"
       y="173.15105"
       transform="matrix(0.97590284,0.21820553,-0.21820553,0.97590284,0,0)" />
    <rect
       transform="matrix(0.97590284,0.21820553,-0.21820553,0.97590284,0,0)"
       y="159.03496"
       x="286.37747"
       height="48.522621"
       width="48.522621"
       id="rect6739-7-1-9-6"
       style="fill:#000000;fill-opacity:1;stroke:none" />
    <rect
       style="fill:#000000;fill-opacity:1;stroke:none"
       id="rect6741-1-5-6-8"
       width="48.522621"
       height="48.522621"
       x="353.72433"
       y="172.91875"
       transform="matrix(0.97590284,0.21820553,-0.21820553,0.97590284,0,0)" />
    <rect
       transform="matrix(0.97590284,0.21820553,-0.21820553,0.97590284,0,0)"
       y="186.80254"
       x="421.07126"
       height="48.522621"
       width="48.522621"
       id="rect6743-3-2-7-5"
       style="fill:#000000;fill-opacity:1;stroke:none" />
    <rect
       style="fill:#000000;fill-opacity:1;stroke:none"
       id="rect6749-2-7-1-4"
       width="48.522621"
       height="48.522621"
       x="151.89639"
       y="254.58997"
       transform="matrix(0.97590284,0.21820553,-0.21820553,0.97590284,0,0)" />
    <rect
       transform="matrix(0.97590284,0.21820553,-0.21820553,0.97590284,0,0)"
       y="240.47375"
       x="219.1951"
       height="48.522621"
       width="48.522621"
       id="rect6751-1-6-2-9"
       style="fill:#000000;fill-opacity:1;stroke:none" />
    <rect
       style="fill:#000000;fill-opacity:1;stroke:none"
       id="rect6753-6-1-6-9"
       width="48.522621"
       height="48.522621"
       x="286.49368"
       y="226.35768"
       transform="matrix(0.97590284,0.21820553,-0.21820553,0.97590284,0,0)" />
    <rect
       transform="matrix(0.97590284,0.21820553,-0.21820553,0.97590284,0,0)"
       y="240.24146"
       x="353.84055"
       height="48.522621"
       width="48.522621"
       id="rect6755-38-4-0-3"
       style="fill:#000000;fill-opacity:1;stroke:none" />
    <rect
       style="fill:#000000;fill-opacity:1;stroke:none"
       id="rect6757-3-2-2-0"
       width="48.522621"
       height="48.522621"
       x="421.18747"
       y="254.12524"
       transform="matrix(0.97590284,0.21820553,-0.21820553,0.97590284,0,0)" />
    <rect
       style="fill:#000000;fill-opacity:1;stroke:none"
       id="rect6761-8-2-4-0"
       width="48.522621"
       height="48.522621"
       x="304.17587"
       y="384.35715"
       transform="matrix(0.99821029,0.05980143,-0.05980143,0.99821029,0,0)" />
    <rect
       transform="matrix(0.97590284,0.21820553,-0.21820553,0.97590284,0,0)"
       y="324.45767"
       x="438.16373"
       height="48.522621"
       width="48.522621"
       id="rect6763-60-2-1-7"
       style="fill:#000000;fill-opacity:1;stroke:none" />
    <path
       style="fill:none;stroke:#000000;stroke-width:1px;stroke-linecap:butt;stroke-linejoin:miter;stroke-opacity:1"
       d="m 514.01311,487.01922 c -314.052,0 -571.392202,-12.76461 -495.005502,-406.445994 C 197.23201,44.802726 344.29405,68.643936 513.91241,114.3428"
       id="path6432-6-2"
       inkscape:connector-curvature="0"
       sodipodi:nodetypes="ccc" />
    <rect
       style="fill:#000000;fill-opacity:1;stroke:none"
       id="rect6761-8-2-6-0-0"
       width="48.522621"
       height="48.522621"
       x="233.31232"
       y="383.92398"
       transform="matrix(0.99821029,0.05980143,-0.05980143,0.99821029,0,0)" />
  </g>
</svg>
