<?xml version="1.0" encoding="UTF-8" standalone="no"?>
<!-- Created with Inkscape (http://www.inkscape.org/) -->

<svg
   xmlns:dc="http://purl.org/dc/elements/1.1/"
   xmlns:cc="http://creativecommons.org/ns#"
   xmlns:rdf="http://www.w3.org/1999/02/22-rdf-syntax-ns#"
   xmlns:svg="http://www.w3.org/2000/svg"
   xmlns="http://www.w3.org/2000/svg"
   xmlns:sodipodi="http://sodipodi.sourceforge.net/DTD/sodipodi-0.dtd"
   xmlns:inkscape="http://www.inkscape.org/namespaces/inkscape"
   width="1285.9141"
   height="426.46036"
   id="svg3517"
   version="1.1"
   inkscape:version="0.48.3.1 r9886"
   sodipodi:docname="catboard-3s-2.svg">
  <defs
     id="defs3519" />
  <sodipodi:namedview
     id="base"
     pagecolor="#ffffff"
     bordercolor="#666666"
     borderopacity="1.0"
     inkscape:pageopacity="0.0"
     inkscape:pageshadow="2"
     inkscape:zoom="0.49497475"
     inkscape:cx="587.1066"
     inkscape:cy="244.08629"
     inkscape:document-units="px"
     inkscape:current-layer="layer1"
     showgrid="false"
     fit-margin-top="0"
     fit-margin-left="0"
     fit-margin-right="0"
     fit-margin-bottom="0"
     inkscape:window-width="1024"
     inkscape:window-height="744"
     inkscape:window-x="0"
     inkscape:window-y="24"
     inkscape:window-maximized="1"
     showguides="true"
     inkscape:guide-bbox="true">
    <sodipodi:guide
       orientation="0,1"
       position="-202.01773,371.80143"
       id="guide3661" />
    <sodipodi:guide
       orientation="1,0"
       position="737.91136,490.96036"
       id="guide3716" />
    <sodipodi:guide
       orientation="1,0"
       position="594.46969,424.29029"
       id="guide3718" />
  </sodipodi:namedview>
  <metadata
     id="metadata3522">
    <rdf:RDF>
      <cc:Work
         rdf:about="">
        <dc:format>image/svg+xml</dc:format>
        <dc:type
           rdf:resource="http://purl.org/dc/dcmitype/StillImage" />
        <dc:title></dc:title>
      </cc:Work>
    </rdf:RDF>
  </metadata>
  <g
     inkscape:label="Layer 1"
     inkscape:groupmode="layer"
     id="layer1"
     transform="translate(148.01352,-58.9393)">
    <rect
       style="fill:#000000;fill-opacity:1;stroke:none"
       id="rect5184-2-9-1"
       width="48.522621"
       height="48.522621"
       x="84.467239"
       y="71.452721"
       transform="matrix(0.97590284,0.21820553,-0.21820553,0.97590284,0,0)" />
    <rect
       transform="matrix(0.97590284,0.21820553,-0.21820553,0.97590284,0,0)"
       y="52.620075"
       x="151.67403"
       height="48.522621"
       width="48.522621"
       id="rect6707-4-7"
       style="fill:#000000;fill-opacity:1;stroke:none" />
    <rect
       style="fill:#000000;fill-opacity:1;stroke:none"
       id="rect6709-46-4"
       width="48.522621"
       height="48.522621"
       x="218.97261"
       y="38.503983"
       transform="matrix(0.97590284,0.21820553,-0.21820553,0.97590284,0,0)" />
    <rect
       transform="matrix(0.97590284,0.21820553,-0.21820553,0.97590284,0,0)"
       y="24.387775"
       x="286.27118"
       height="48.522621"
       width="48.522621"
       id="rect6711-9-0"
       style="fill:#000000;fill-opacity:1;stroke:none" />
    <rect
       style="fill:#000000;fill-opacity:1;stroke:none"
       id="rect6713-8-9"
       width="48.522621"
       height="48.522621"
       x="353.61795"
       y="38.271561"
       transform="matrix(0.97590284,0.21820553,-0.21820553,0.97590284,0,0)" />
    <rect
       transform="matrix(0.97590284,0.21820553,-0.21820553,0.97590284,0,0)"
       y="52.155354"
       x="420.96487"
       height="48.522621"
       width="48.522621"
       id="rect6715-5-4"
       style="fill:#000000;fill-opacity:1;stroke:none" />
    <rect
       transform="matrix(0.97590284,0.21820553,-0.21820553,0.97590284,0,0)"
       y="138.77547"
       x="84.58345"
       height="48.522621"
       width="48.522621"
       id="rect6719-6-8"
       style="fill:#000000;fill-opacity:1;stroke:none" />
    <rect
       style="fill:#000000;fill-opacity:1;stroke:none"
       id="rect6721-6-8"
       width="48.522621"
       height="48.522621"
       x="151.79024"
       y="119.94283"
       transform="matrix(0.97590284,0.21820553,-0.21820553,0.97590284,0,0)" />
    <rect
       transform="matrix(0.97590284,0.21820553,-0.21820553,0.97590284,0,0)"
       y="105.82662"
       x="219.08882"
       height="48.522621"
       width="48.522621"
       id="rect6723-0-2"
       style="fill:#000000;fill-opacity:1;stroke:none" />
    <rect
       style="fill:#000000;fill-opacity:1;stroke:none"
       id="rect6725-7-4"
       width="48.522621"
       height="48.522621"
       x="286.38739"
       y="91.710533"
       transform="matrix(0.97590284,0.21820553,-0.21820553,0.97590284,0,0)" />
    <rect
       transform="matrix(0.97590284,0.21820553,-0.21820553,0.97590284,0,0)"
       y="105.59432"
       x="353.73416"
       height="48.522621"
       width="48.522621"
       id="rect6727-2-5"
       style="fill:#000000;fill-opacity:1;stroke:none" />
    <rect
       style="fill:#000000;fill-opacity:1;stroke:none"
       id="rect6729-7-5"
       width="48.522621"
       height="48.522621"
       x="421.08109"
       y="119.4781"
       transform="matrix(0.97590284,0.21820553,-0.21820553,0.97590284,0,0)" />
    <rect
       style="fill:#000000;fill-opacity:1;stroke:none"
       id="rect6733-2-1"
       width="48.522621"
       height="48.522621"
       x="84.699661"
       y="206.09822"
       transform="matrix(0.97590284,0.21820553,-0.21820553,0.97590284,0,0)" />
    <rect
       transform="matrix(0.97590284,0.21820553,-0.21820553,0.97590284,0,0)"
       y="187.26558"
       x="151.90633"
       height="48.522621"
       width="48.522621"
       id="rect6735-6-7"
       style="fill:#000000;fill-opacity:1;stroke:none" />
    <rect
       style="fill:#000000;fill-opacity:1;stroke:none"
       id="rect6737-4-1"
       width="48.522621"
       height="48.522621"
       x="219.20503"
       y="173.14937"
       transform="matrix(0.97590284,0.21820553,-0.21820553,0.97590284,0,0)" />
    <rect
       transform="matrix(0.97590284,0.21820553,-0.21820553,0.97590284,0,0)"
       y="159.03328"
       x="286.5036"
       height="48.522621"
       width="48.522621"
       id="rect6739-7-1"
       style="fill:#000000;fill-opacity:1;stroke:none" />
    <rect
       style="fill:#000000;fill-opacity:1;stroke:none"
       id="rect6741-1-5"
       width="48.522621"
       height="48.522621"
       x="353.85037"
       y="172.91707"
       transform="matrix(0.97590284,0.21820553,-0.21820553,0.97590284,0,0)" />
    <rect
       transform="matrix(0.97590284,0.21820553,-0.21820553,0.97590284,0,0)"
       y="186.80086"
       x="421.1973"
       height="48.522621"
       width="48.522621"
       id="rect6743-3-2"
       style="fill:#000000;fill-opacity:1;stroke:none" />
    <rect
       style="fill:#000000;fill-opacity:1;stroke:none"
       id="rect6749-2-7"
       width="48.522621"
       height="48.522621"
       x="152.02254"
       y="254.58833"
       transform="matrix(0.97590284,0.21820553,-0.21820553,0.97590284,0,0)" />
    <rect
       transform="matrix(0.97590284,0.21820553,-0.21820553,0.97590284,0,0)"
       y="240.47212"
       x="219.32112"
       height="48.522621"
       width="48.522621"
       id="rect6751-1-6"
       style="fill:#000000;fill-opacity:1;stroke:none" />
    <rect
       style="fill:#000000;fill-opacity:1;stroke:none"
       id="rect6753-6-1"
       width="48.522621"
       height="48.522621"
       x="286.61981"
       y="226.35603"
       transform="matrix(0.97590284,0.21820553,-0.21820553,0.97590284,0,0)" />
    <rect
       transform="matrix(0.97590284,0.21820553,-0.21820553,0.97590284,0,0)"
       y="240.23982"
       x="353.96658"
       height="48.522621"
       width="48.522621"
       id="rect6755-38-4"
       style="fill:#000000;fill-opacity:1;stroke:none" />
    <rect
       style="fill:#000000;fill-opacity:1;stroke:none"
       id="rect6757-3-2"
       width="48.522621"
       height="48.522621"
       x="421.31351"
       y="254.12361"
       transform="matrix(0.97590284,0.21820553,-0.21820553,0.97590284,0,0)" />
    <rect
       style="fill:#000000;fill-opacity:1;stroke:none"
       id="rect6761-8-2"
       width="48.522621"
       height="48.522621"
       x="304.30048"
       y="384.37564"
       transform="matrix(0.99821029,0.05980143,-0.05980143,0.99821029,0,0)" />
    <rect
       transform="matrix(0.97590284,0.21820553,-0.21820553,0.97590284,0,0)"
       y="321.42523"
       x="433.51334"
       height="48.522621"
       width="48.522621"
       id="rect6763-60-2"
       style="fill:#000000;fill-opacity:1;stroke:none" />
    <path
       style="fill:none;stroke:#000000;stroke-width:1px;stroke-linecap:butt;stroke-linejoin:miter;stroke-opacity:1"
       d="M 518.98793,473.96285 393.57084,484.89965 333.53096,470.21683 200.19782,463.4472 0.51646429,296.94526 35.293394,70.497558 313.01662,60.209758 514.03576,114.36866"
       id="path6432"
       inkscape:connector-curvature="0"
       sodipodi:nodetypes="cccccccc" />
    <rect
       style="fill:#000000;fill-opacity:1;stroke:none"
       id="rect6761-8-2-6"
       width="48.522621"
       height="48.522621"
       x="233.43694"
       y="383.94247"
       transform="matrix(0.99821029,0.05980143,-0.05980143,0.99821029,0,0)" />
    <rect
       style="fill:#000000;fill-opacity:1;stroke:none"
       id="rect5184-2-9-1-3"
       width="48.522621"
       height="48.522621"
       x="-917.80432"
       y="294.76465"
       transform="matrix(-0.97590284,0.21820553,0.21820553,0.97590284,0,0)" />
    <rect
       transform="matrix(-0.97590284,0.21820553,0.21820553,0.97590284,0,0)"
       y="275.93198"
       x="-850.59753"
       height="48.522621"
       width="48.522621"
       id="rect6707-4-7-0"
       style="fill:#000000;fill-opacity:1;stroke:none" />
    <rect
       style="fill:#000000;fill-opacity:1;stroke:none"
       id="rect6709-46-4-4"
       width="48.522621"
       height="48.522621"
       x="-783.29889"
       y="261.81589"
       transform="matrix(-0.97590284,0.21820553,0.21820553,0.97590284,0,0)" />
    <rect
       transform="matrix(-0.97590284,0.21820553,0.21820553,0.97590284,0,0)"
       y="247.69968"
       x="-716.00037"
       height="48.522621"
       width="48.522621"
       id="rect6711-9-0-1"
       style="fill:#000000;fill-opacity:1;stroke:none" />
    <rect
       style="fill:#000000;fill-opacity:1;stroke:none"
       id="rect6713-8-9-0"
       width="48.522621"
       height="48.522621"
       x="-648.65356"
       y="261.58347"
       transform="matrix(-0.97590284,0.21820553,0.21820553,0.97590284,0,0)" />
    <rect
       transform="matrix(-0.97590284,0.21820553,0.21820553,0.97590284,0,0)"
       y="275.46725"
       x="-581.30664"
       height="48.522621"
       width="48.522621"
       id="rect6715-5-4-6"
       style="fill:#000000;fill-opacity:1;stroke:none" />
    <rect
       transform="matrix(-0.97590284,0.21820553,0.21820553,0.97590284,0,0)"
       y="362.0874"
       x="-917.68811"
       height="48.522621"
       width="48.522621"
       id="rect6719-6-8-3"
       style="fill:#000000;fill-opacity:1;stroke:none" />
    <rect
       style="fill:#000000;fill-opacity:1;stroke:none"
       id="rect6721-6-8-1"
       width="48.522621"
       height="48.522621"
       x="-850.48132"
       y="343.25476"
       transform="matrix(-0.97590284,0.21820553,0.21820553,0.97590284,0,0)" />
    <rect
       transform="matrix(-0.97590284,0.21820553,0.21820553,0.97590284,0,0)"
       y="329.13855"
       x="-783.18268"
       height="48.522621"
       width="48.522621"
       id="rect6723-0-2-1"
       style="fill:#000000;fill-opacity:1;stroke:none" />
    <rect
       style="fill:#000000;fill-opacity:1;stroke:none"
       id="rect6725-7-4-8"
       width="48.522621"
       height="48.522621"
       x="-715.88416"
       y="315.02246"
       transform="matrix(-0.97590284,0.21820553,0.21820553,0.97590284,0,0)" />
    <rect
       transform="matrix(-0.97590284,0.21820553,0.21820553,0.97590284,0,0)"
       y="328.90625"
       x="-648.53735"
       height="48.522621"
       width="48.522621"
       id="rect6727-2-5-2"
       style="fill:#000000;fill-opacity:1;stroke:none" />
    <rect
       style="fill:#000000;fill-opacity:1;stroke:none"
       id="rect6729-7-5-3"
       width="48.522621"
       height="48.522621"
       x="-581.19043"
       y="342.79001"
       transform="matrix(-0.97590284,0.21820553,0.21820553,0.97590284,0,0)" />
    <rect
       style="fill:#000000;fill-opacity:1;stroke:none"
       id="rect6733-2-1-5"
       width="48.522621"
       height="48.522621"
       x="-917.5719"
       y="429.41013"
       transform="matrix(-0.97590284,0.21820553,0.21820553,0.97590284,0,0)" />
    <rect
       transform="matrix(-0.97590284,0.21820553,0.21820553,0.97590284,0,0)"
       y="410.57748"
       x="-850.36523"
       height="48.522621"
       width="48.522621"
       id="rect6735-6-7-1"
       style="fill:#000000;fill-opacity:1;stroke:none" />
    <rect
       style="fill:#000000;fill-opacity:1;stroke:none"
       id="rect6737-4-1-1"
       width="48.522621"
       height="48.522621"
       x="-783.06647"
       y="396.4613"
       transform="matrix(-0.97590284,0.21820553,0.21820553,0.97590284,0,0)" />
    <rect
       transform="matrix(-0.97590284,0.21820553,0.21820553,0.97590284,0,0)"
       y="382.34521"
       x="-715.76794"
       height="48.522621"
       width="48.522621"
       id="rect6739-7-1-0"
       style="fill:#000000;fill-opacity:1;stroke:none" />
    <rect
       style="fill:#000000;fill-opacity:1;stroke:none"
       id="rect6741-1-5-0"
       width="48.522621"
       height="48.522621"
       x="-648.42114"
       y="396.229"
       transform="matrix(-0.97590284,0.21820553,0.21820553,0.97590284,0,0)" />
    <rect
       transform="matrix(-0.97590284,0.21820553,0.21820553,0.97590284,0,0)"
       y="410.11276"
       x="-581.07422"
       height="48.522621"
       width="48.522621"
       id="rect6743-3-2-7"
       style="fill:#000000;fill-opacity:1;stroke:none" />
    <rect
       style="fill:#000000;fill-opacity:1;stroke:none"
       id="rect6749-2-7-7"
       width="48.522621"
       height="48.522621"
       x="-850.24902"
       y="477.90024"
       transform="matrix(-0.97590284,0.21820553,0.21820553,0.97590284,0,0)" />
    <rect
       transform="matrix(-0.97590284,0.21820553,0.21820553,0.97590284,0,0)"
       y="463.78403"
       x="-782.95038"
       height="48.522621"
       width="48.522621"
       id="rect6751-1-6-4"
       style="fill:#000000;fill-opacity:1;stroke:none" />
    <rect
       style="fill:#000000;fill-opacity:1;stroke:none"
       id="rect6753-6-1-4"
       width="48.522621"
       height="48.522621"
       x="-715.65173"
       y="449.66794"
       transform="matrix(-0.97590284,0.21820553,0.21820553,0.97590284,0,0)" />
    <rect
       transform="matrix(-0.97590284,0.21820553,0.21820553,0.97590284,0,0)"
       y="463.55173"
       x="-648.30493"
       height="48.522621"
       width="48.522621"
       id="rect6755-38-4-8"
       style="fill:#000000;fill-opacity:1;stroke:none" />
    <rect
       style="fill:#000000;fill-opacity:1;stroke:none"
       id="rect6757-3-2-6"
       width="48.522621"
       height="48.522621"
       x="-580.95801"
       y="477.43552"
       transform="matrix(-0.97590284,0.21820553,0.21820553,0.97590284,0,0)" />
    <rect
       style="fill:#000000;fill-opacity:1;stroke:none"
       id="rect6761-8-2-7"
       width="48.522621"
       height="48.522621"
       x="-720.75537"
       y="445.01352"
       transform="matrix(-0.99821029,0.05980143,0.05980143,0.99821029,0,0)" />
    <rect
       transform="matrix(-0.97590284,0.21820553,0.21820553,0.97590284,0,0)"
       y="544.73718"
       x="-568.75824"
       height="48.522621"
       width="48.522621"
       id="rect6763-60-2-3"
       style="fill:#000000;fill-opacity:1;stroke:none" />
    <path
       style="fill:none;stroke:#000000;stroke-width:1px;stroke-linecap:butt;stroke-linejoin:miter;stroke-opacity:1"
       d="m 507.85958,473.19239 125.41705,10.9368 60.03988,-14.68282 133.33314,-6.76963 L 1026.331,296.17481 991.55411,69.7271 713.83085,59.4393 512.81168,113.59821"
       id="path6432-8"
       inkscape:connector-curvature="0"
       sodipodi:nodetypes="cccccccc" />
    <rect
       style="fill:#000000;fill-opacity:1;stroke:none"
       id="rect6761-8-2-6-6"
       width="48.522621"
       height="48.522621"
       x="-791.6189"
       y="444.58035"
       transform="matrix(-0.99821029,0.05980143,0.05980143,0.99821029,0,0)" />
    <path
       style="fill:none;stroke:#000000;stroke-width:1px;stroke-linecap:butt;stroke-linejoin:miter;stroke-opacity:1"
       d="m -147.48227,53.87946 1284.91407,0"
       id="path3924"
       inkscape:connector-curvature="0"
       transform="translate(-0.03125,59.71875)" />
  </g>
</svg>
