<?xml version="1.0" encoding="UTF-8" standalone="no"?>
<!-- Created with Inkscape (http://www.inkscape.org/) -->

<svg
   xmlns:dc="http://purl.org/dc/elements/1.1/"
   xmlns:cc="http://creativecommons.org/ns#"
   xmlns:rdf="http://www.w3.org/1999/02/22-rdf-syntax-ns#"
   xmlns:svg="http://www.w3.org/2000/svg"
   xmlns="http://www.w3.org/2000/svg"
   xmlns:sodipodi="http://sodipodi.sourceforge.net/DTD/sodipodi-0.dtd"
   xmlns:inkscape="http://www.inkscape.org/namespaces/inkscape"
   width="1028.625"
   height="419.59375"
   id="svg3517"
   version="1.1"
   inkscape:version="0.48.3.1 r9886"
   sodipodi:docname="New document 2">
  <defs
     id="defs3519" />
  <sodipodi:namedview
     id="base"
     pagecolor="#ffffff"
     bordercolor="#666666"
     borderopacity="1.0"
     inkscape:pageopacity="0.0"
     inkscape:pageshadow="2"
     inkscape:zoom="0.35"
     inkscape:cx="375.03125"
     inkscape:cy="-53.049683"
     inkscape:document-units="px"
     inkscape:current-layer="layer1"
     showgrid="false"
     fit-margin-top="0"
     fit-margin-left="0"
     fit-margin-right="0"
     fit-margin-bottom="0"
     inkscape:window-width="472"
     inkscape:window-height="415"
     inkscape:window-x="0"
     inkscape:window-y="24"
     inkscape:window-maximized="0" />
  <metadata
     id="metadata3522">
    <rdf:RDF>
      <cc:Work
         rdf:about="">
        <dc:format>image/svg+xml</dc:format>
        <dc:type
           rdf:resource="http://purl.org/dc/dcmitype/StillImage" />
        <dc:title></dc:title>
      </cc:Work>
    </rdf:RDF>
  </metadata>
  <g
     inkscape:label="Layer 1"
     inkscape:groupmode="layer"
     id="layer1"
     transform="translate(0.03125,-59.71875)">
    <rect
       style="fill:#000000;fill-opacity:1;stroke:none"
       id="rect5184-2-9-1"
       width="48.522621"
       height="48.522621"
       x="69.868759"
       y="89.832649"
       transform="matrix(0.98814835,0.15350192,-0.15350192,0.98814835,0,0)" />
    <rect
       transform="matrix(0.98814835,0.15350192,-0.15350192,0.98814835,0,0)"
       y="71.000008"
       x="137.07555"
       height="48.522621"
       width="48.522621"
       id="rect6707-4-7"
       style="fill:#000000;fill-opacity:1;stroke:none" />
    <rect
       style="fill:#000000;fill-opacity:1;stroke:none"
       id="rect6709-46-4"
       width="48.522621"
       height="48.522621"
       x="204.37413"
       y="56.883915"
       transform="matrix(0.98814835,0.15350192,-0.15350192,0.98814835,0,0)" />
    <rect
       transform="matrix(0.98814835,0.15350192,-0.15350192,0.98814835,0,0)"
       y="42.767708"
       x="271.6727"
       height="48.522621"
       width="48.522621"
       id="rect6711-9-0"
       style="fill:#000000;fill-opacity:1;stroke:none" />
    <rect
       style="fill:#000000;fill-opacity:1;stroke:none"
       id="rect6713-8-9"
       width="48.522621"
       height="48.522621"
       x="339.01947"
       y="56.651493"
       transform="matrix(0.98814835,0.15350192,-0.15350192,0.98814835,0,0)" />
    <rect
       transform="matrix(0.98814835,0.15350192,-0.15350192,0.98814835,0,0)"
       y="70.535286"
       x="406.36639"
       height="48.522621"
       width="48.522621"
       id="rect6715-5-4"
       style="fill:#000000;fill-opacity:1;stroke:none" />
    <rect
       transform="matrix(0.98814835,0.15350192,-0.15350192,0.98814835,0,0)"
       y="157.1554"
       x="69.98497"
       height="48.522621"
       width="48.522621"
       id="rect6719-6-8"
       style="fill:#000000;fill-opacity:1;stroke:none" />
    <rect
       style="fill:#000000;fill-opacity:1;stroke:none"
       id="rect6721-6-8"
       width="48.522621"
       height="48.522621"
       x="137.19176"
       y="138.32275"
       transform="matrix(0.98814835,0.15350192,-0.15350192,0.98814835,0,0)" />
    <rect
       transform="matrix(0.98814835,0.15350192,-0.15350192,0.98814835,0,0)"
       y="124.20655"
       x="204.49034"
       height="48.522621"
       width="48.522621"
       id="rect6723-0-2"
       style="fill:#000000;fill-opacity:1;stroke:none" />
    <rect
       style="fill:#000000;fill-opacity:1;stroke:none"
       id="rect6725-7-4"
       width="48.522621"
       height="48.522621"
       x="271.78891"
       y="110.09046"
       transform="matrix(0.98814835,0.15350192,-0.15350192,0.98814835,0,0)" />
    <rect
       transform="matrix(0.98814835,0.15350192,-0.15350192,0.98814835,0,0)"
       y="123.97425"
       x="339.13568"
       height="48.522621"
       width="48.522621"
       id="rect6727-2-5"
       style="fill:#000000;fill-opacity:1;stroke:none" />
    <rect
       style="fill:#000000;fill-opacity:1;stroke:none"
       id="rect6729-7-5"
       width="48.522621"
       height="48.522621"
       x="406.4826"
       y="137.85803"
       transform="matrix(0.98814835,0.15350192,-0.15350192,0.98814835,0,0)" />
    <rect
       style="fill:#000000;fill-opacity:1;stroke:none"
       id="rect6733-2-1"
       width="48.522621"
       height="48.522621"
       x="70.101181"
       y="224.47815"
       transform="matrix(0.98814835,0.15350192,-0.15350192,0.98814835,0,0)" />
    <rect
       transform="matrix(0.98814835,0.15350192,-0.15350192,0.98814835,0,0)"
       y="205.64551"
       x="137.30785"
       height="48.522621"
       width="48.522621"
       id="rect6735-6-7"
       style="fill:#000000;fill-opacity:1;stroke:none" />
    <rect
       style="fill:#000000;fill-opacity:1;stroke:none"
       id="rect6737-4-1"
       width="48.522621"
       height="48.522621"
       x="204.60655"
       y="191.5293"
       transform="matrix(0.98814835,0.15350192,-0.15350192,0.98814835,0,0)" />
    <rect
       transform="matrix(0.98814835,0.15350192,-0.15350192,0.98814835,0,0)"
       y="177.41321"
       x="271.90512"
       height="48.522621"
       width="48.522621"
       id="rect6739-7-1"
       style="fill:#000000;fill-opacity:1;stroke:none" />
    <rect
       style="fill:#000000;fill-opacity:1;stroke:none"
       id="rect6741-1-5"
       width="48.522621"
       height="48.522621"
       x="339.25189"
       y="191.297"
       transform="matrix(0.98814835,0.15350192,-0.15350192,0.98814835,0,0)" />
    <rect
       transform="matrix(0.98814835,0.15350192,-0.15350192,0.98814835,0,0)"
       y="205.18079"
       x="406.59882"
       height="48.522621"
       width="48.522621"
       id="rect6743-3-2"
       style="fill:#000000;fill-opacity:1;stroke:none" />
    <rect
       style="fill:#000000;fill-opacity:1;stroke:none"
       id="rect6749-2-7"
       width="48.522621"
       height="48.522621"
       x="137.42406"
       y="272.96826"
       transform="matrix(0.98814835,0.15350192,-0.15350192,0.98814835,0,0)" />
    <rect
       transform="matrix(0.98814835,0.15350192,-0.15350192,0.98814835,0,0)"
       y="258.85205"
       x="204.72264"
       height="48.522621"
       width="48.522621"
       id="rect6751-1-6"
       style="fill:#000000;fill-opacity:1;stroke:none" />
    <rect
       style="fill:#000000;fill-opacity:1;stroke:none"
       id="rect6753-6-1"
       width="48.522621"
       height="48.522621"
       x="272.02133"
       y="244.73596"
       transform="matrix(0.98814835,0.15350192,-0.15350192,0.98814835,0,0)" />
    <rect
       transform="matrix(0.98814835,0.15350192,-0.15350192,0.98814835,0,0)"
       y="258.61975"
       x="339.3681"
       height="48.522621"
       width="48.522621"
       id="rect6755-38-4"
       style="fill:#000000;fill-opacity:1;stroke:none" />
    <rect
       style="fill:#000000;fill-opacity:1;stroke:none"
       id="rect6757-3-2"
       width="48.522621"
       height="48.522621"
       x="406.71503"
       y="272.50354"
       transform="matrix(0.98814835,0.15350192,-0.15350192,0.98814835,0,0)" />
    <rect
       transform="matrix(0.98814835,0.15350192,-0.15350192,0.98814835,0,0)"
       y="326.03772"
       x="284.16159"
       height="48.522621"
       width="48.522621"
       id="rect6759-2-3"
       style="fill:#000000;fill-opacity:1;stroke:none" />
    <rect
       style="fill:#000000;fill-opacity:1;stroke:none"
       id="rect6761-8-2"
       width="48.522621"
       height="48.522621"
       x="351.48431"
       y="325.92151"
       transform="matrix(0.98814835,0.15350192,-0.15350192,0.98814835,0,0)" />
    <rect
       transform="matrix(0.98814835,0.15350192,-0.15350192,0.98814835,0,0)"
       y="339.80518"
       x="418.91486"
       height="48.522621"
       width="48.522621"
       id="rect6763-60-2"
       style="fill:#000000;fill-opacity:1;stroke:none" />
    <path
       style="fill:none;stroke:#000000;stroke-width:1px;stroke-linecap:butt;stroke-linejoin:miter;stroke-opacity:1"
       d="M 430.41649,478.24856 213.76925,445.59006 0.51646429,296.94526 35.293394,70.497558 313.01662,60.209758 514.03576,114.36866"
       id="path6432"
       inkscape:connector-curvature="0"
       sodipodi:nodetypes="cccccc" />
    <path
       style="fill:none;stroke:#000000;stroke-width:0.91332668px;stroke-linecap:butt;stroke-linejoin:miter;stroke-opacity:1"
       d="m 513.61719,478.34286 -85.4789,0"
       id="path7186"
       inkscape:connector-curvature="0"
       sodipodi:nodetypes="cc" />
    <rect
       style="fill:#000000;fill-opacity:1;stroke:none"
       id="rect5184-2-9-8"
       width="48.522621"
       height="48.522621"
       x="-946.43561"
       y="248.21515"
       transform="matrix(-0.98814835,0.15350192,0.15350192,0.98814835,0,0)" />
    <rect
       transform="matrix(-0.98814835,0.15350192,0.15350192,0.98814835,0,0)"
       y="229.38251"
       x="-879.22882"
       height="48.522621"
       width="48.522621"
       id="rect6707-4-9"
       style="fill:#000000;fill-opacity:1;stroke:none" />
    <rect
       style="fill:#000000;fill-opacity:1;stroke:none"
       id="rect6709-46-1"
       width="48.522621"
       height="48.522621"
       x="-811.93024"
       y="215.26642"
       transform="matrix(-0.98814835,0.15350192,0.15350192,0.98814835,0,0)" />
    <rect
       transform="matrix(-0.98814835,0.15350192,0.15350192,0.98814835,0,0)"
       y="201.15021"
       x="-744.63165"
       height="48.522621"
       width="48.522621"
       id="rect6711-9-7"
       style="fill:#000000;fill-opacity:1;stroke:none" />
    <rect
       style="fill:#000000;fill-opacity:1;stroke:none"
       id="rect6713-8-3"
       width="48.522621"
       height="48.522621"
       x="-677.28485"
       y="215.034"
       transform="matrix(-0.98814835,0.15350192,0.15350192,0.98814835,0,0)" />
    <rect
       transform="matrix(-0.98814835,0.15350192,0.15350192,0.98814835,0,0)"
       y="228.91779"
       x="-609.93793"
       height="48.522621"
       width="48.522621"
       id="rect6715-5-3"
       style="fill:#000000;fill-opacity:1;stroke:none" />
    <rect
       transform="matrix(-0.98814835,0.15350192,0.15350192,0.98814835,0,0)"
       y="315.53793"
       x="-946.3194"
       height="48.522621"
       width="48.522621"
       id="rect6719-6-0"
       style="fill:#000000;fill-opacity:1;stroke:none" />
    <rect
       style="fill:#000000;fill-opacity:1;stroke:none"
       id="rect6721-6-7"
       width="48.522621"
       height="48.522621"
       x="-879.11261"
       y="296.70526"
       transform="matrix(-0.98814835,0.15350192,0.15350192,0.98814835,0,0)" />
    <rect
       transform="matrix(-0.98814835,0.15350192,0.15350192,0.98814835,0,0)"
       y="282.58905"
       x="-811.81403"
       height="48.522621"
       width="48.522621"
       id="rect6723-0-6"
       style="fill:#000000;fill-opacity:1;stroke:none" />
    <rect
       style="fill:#000000;fill-opacity:1;stroke:none"
       id="rect6725-7-6"
       width="48.522621"
       height="48.522621"
       x="-744.51544"
       y="268.47296"
       transform="matrix(-0.98814835,0.15350192,0.15350192,0.98814835,0,0)" />
    <rect
       transform="matrix(-0.98814835,0.15350192,0.15350192,0.98814835,0,0)"
       y="282.35675"
       x="-677.16864"
       height="48.522621"
       width="48.522621"
       id="rect6727-2-0"
       style="fill:#000000;fill-opacity:1;stroke:none" />
    <rect
       style="fill:#000000;fill-opacity:1;stroke:none"
       id="rect6729-7-2"
       width="48.522621"
       height="48.522621"
       x="-609.82172"
       y="296.24054"
       transform="matrix(-0.98814835,0.15350192,0.15350192,0.98814835,0,0)" />
    <rect
       style="fill:#000000;fill-opacity:1;stroke:none"
       id="rect6733-2-8"
       width="48.522621"
       height="48.522621"
       x="-946.20319"
       y="382.86069"
       transform="matrix(-0.98814835,0.15350192,0.15350192,0.98814835,0,0)" />
    <rect
       transform="matrix(-0.98814835,0.15350192,0.15350192,0.98814835,0,0)"
       y="364.02805"
       x="-878.99652"
       height="48.522621"
       width="48.522621"
       id="rect6735-6-9"
       style="fill:#000000;fill-opacity:1;stroke:none" />
    <rect
       style="fill:#000000;fill-opacity:1;stroke:none"
       id="rect6737-4-8"
       width="48.522621"
       height="48.522621"
       x="-811.69781"
       y="349.91183"
       transform="matrix(-0.98814835,0.15350192,0.15350192,0.98814835,0,0)" />
    <rect
       transform="matrix(-0.98814835,0.15350192,0.15350192,0.98814835,0,0)"
       y="335.79575"
       x="-744.39923"
       height="48.522621"
       width="48.522621"
       id="rect6739-7-9"
       style="fill:#000000;fill-opacity:1;stroke:none" />
    <rect
       style="fill:#000000;fill-opacity:1;stroke:none"
       id="rect6741-1-9"
       width="48.522621"
       height="48.522621"
       x="-677.05243"
       y="349.67953"
       transform="matrix(-0.98814835,0.15350192,0.15350192,0.98814835,0,0)" />
    <rect
       transform="matrix(-0.98814835,0.15350192,0.15350192,0.98814835,0,0)"
       y="363.56332"
       x="-609.70551"
       height="48.522621"
       width="48.522621"
       id="rect6743-3-9"
       style="fill:#000000;fill-opacity:1;stroke:none" />
    <rect
       style="fill:#000000;fill-opacity:1;stroke:none"
       id="rect6749-2-4"
       width="48.522621"
       height="48.522621"
       x="-878.88031"
       y="431.3508"
       transform="matrix(-0.98814835,0.15350192,0.15350192,0.98814835,0,0)" />
    <rect
       transform="matrix(-0.98814835,0.15350192,0.15350192,0.98814835,0,0)"
       y="417.23459"
       x="-811.58173"
       height="48.522621"
       width="48.522621"
       id="rect6751-1-2"
       style="fill:#000000;fill-opacity:1;stroke:none" />
    <rect
       style="fill:#000000;fill-opacity:1;stroke:none"
       id="rect6753-6-0"
       width="48.522621"
       height="48.522621"
       x="-744.28302"
       y="403.1185"
       transform="matrix(-0.98814835,0.15350192,0.15350192,0.98814835,0,0)" />
    <rect
       transform="matrix(-0.98814835,0.15350192,0.15350192,0.98814835,0,0)"
       y="417.00229"
       x="-676.93622"
       height="48.522621"
       width="48.522621"
       id="rect6755-38-8"
       style="fill:#000000;fill-opacity:1;stroke:none" />
    <rect
       style="fill:#000000;fill-opacity:1;stroke:none"
       id="rect6757-3-7"
       width="48.522621"
       height="48.522621"
       x="-609.58929"
       y="430.88608"
       transform="matrix(-0.98814835,0.15350192,0.15350192,0.98814835,0,0)" />
    <rect
       transform="matrix(-0.98814835,0.15350192,0.15350192,0.98814835,0,0)"
       y="484.42026"
       x="-732.14276"
       height="48.522621"
       width="48.522621"
       id="rect6759-2-8"
       style="fill:#000000;fill-opacity:1;stroke:none" />
    <rect
       style="fill:#000000;fill-opacity:1;stroke:none"
       id="rect6761-8-7"
       width="48.522621"
       height="48.522621"
       x="-664.82001"
       y="484.30405"
       transform="matrix(-0.98814835,0.15350192,0.15350192,0.98814835,0,0)" />
    <rect
       transform="matrix(-0.98814835,0.15350192,0.15350192,0.98814835,0,0)"
       y="498.18771"
       x="-597.38947"
       height="48.522621"
       width="48.522621"
       id="rect6763-60-3"
       style="fill:#000000;fill-opacity:1;stroke:none" />
    <path
       style="fill:none;stroke:#000000;stroke-width:1px;stroke-linecap:butt;stroke-linejoin:miter;stroke-opacity:1"
       d="M 598.15499,478.74936 814.80223,446.09086 1028.055,297.44606 993.27809,70.998358 715.55486,60.710558 514.53572,114.86946"
       id="path6432-0"
       inkscape:connector-curvature="0"
       sodipodi:nodetypes="cccccc" />
    <path
       style="fill:none;stroke:#000000;stroke-width:0.91332668px;stroke-linecap:butt;stroke-linejoin:miter;stroke-opacity:1"
       d="m 514.95429,478.84366 85.4789,0"
       id="path7186-7"
       inkscape:connector-curvature="0"
       sodipodi:nodetypes="cc" />
  </g>
</svg>
